# xmcd
#
# Track frame offsets:
#	150
#	13237
#	23569
#	41014
#	56452
#	67216
#	77482
#	89266
#	101821
#	114018
#	127924
#	141244
#	154547
#	167297
#	180410
#	194763
#	211494
#	227817
#	241624
#	253526
#	266972
#	282392
#	294201
#	312466
#
# Disc length: 4345 seconds
#
# Revision: 1
# Processed by: cddbd v1.5.2PL0 Copyright (c) Steve Scherf et al.
# Submitted via: audiograbber 1.83.01
#
DISCID=4b10f718
DTITLE=Various Artist -  Where Soul Meets Country - Out Of Left Field
DYEAR=2016
DGENRE=Country
TTITLE0=Daaron Lee - Who's Making Love
TTITLE1=Jeannie C Riley - He Made A Woman Out Of Me
TTITLE2=Hank WIlliams Jr - Out Of Left Field
TTITLE3=Waylon Jennings and Willie Nelson - The Dock Of The Bay
TTITLE4=Anita Carter - I've Been Loving You Too Long
TTITLE5=Bobby Bare - Find Out What's Happening
TTITLE6=Skeeter Davis - Only The Strong Survive
TTITLE7=Jerry Reed - It Tears Me Up
TTITLE8=Linda Martell - Color Him Father
TTITLE9=Sonny James - When Something Is Wrong With My Baby
TTITLE10=Don Gibson - Starting All Over Again
TTITLE11=Johnny Paycheck - She's All I Got
TTITLE12=O. B. McClinton - You Don't Miss Your Water
TTITLE13=Freddie Fender - You'll Lose A Good Thing
TTITLE14=Archie Campbell and Lorene Mann - Warm And Tender Love
TTITLE15=Ronnie Milsap - Any Day Now
TTITLE16=Tanya Tucker - Baby I'm Yours
TTITLE17=Mel Street - I Found Someone Of My Own
TTITLE18=Conway Twitty and Loretta Lynn - Pickin' Wild Mountain Berries
TTITLE19=The Kendalls - Dark End Of The Street
TTITLE20=Razzy Bailey - Scratch My Back (And Whisper In My Ear)
TTITLE21=Billie Jo Spears - Do Right Woman Do Right Man
TTITLE22=David Allen Coe - He Will Break Your Heart
TTITLE23=Johnny Cash - Look At Them Beans
EXTD=
EXTT0=
EXTT1=
EXTT2=
EXTT3=
EXTT4=
EXTT5=
EXTT6=
EXTT7=
EXTT8=
EXTT9=
EXTT10=
EXTT11=
EXTT12=
EXTT13=
EXTT14=
EXTT15=
EXTT16=
EXTT17=
EXTT18=
EXTT19=
EXTT20=
EXTT21=
EXTT22=
EXTT23=
PLAYORDER=
